PathFileType	4	(X/Y/Z)	/Users/itak/Documents/Research/Walk-IL/dataset/trc/00393_00012.trc
DataRate	CameraRate	NumFrames	NumMarkers	Units	OrigDataRate	OrigDataStartFrame	OrigNumFrames
100.000000	100.000000	4	53	mm	100.000000	412	550
Frame#	Time	RPSI			LPSI			L3			STRN			T10			C7			CLAV			LBAK			LSHO			LUPA			LAEL			LAOL			LWTS			LWPS			LFRA			LIFD			LHPS			LHTS			RSHO			RUPA			RAEL			RAOL			RWTS			RWPS			RFRA			RIFD			RHTS			RHPS			RBHD			LFHD			RFHD			LBHD			LHIP			RHIP			RASI			LASI			LKNE			LTHI			LANK			LTIP			LTOE			LMT1			LMT5			LHEE			RKNE			RTHI			RANK			RTIP			RTOE			RMT1			RMT5			RHEE			RBAK			
		X1	Y1	Z1	X2	Y2	Z2	X3	Y3	Z3	X4	Y4	Z4	X5	Y5	Z5	X6	Y6	Z6	X7	Y7	Z7	X8	Y8	Z8	X9	Y9	Z9	X10	Y10	Z10	X11	Y11	Z11	X12	Y12	Z12	X13	Y13	Z13	X14	Y14	Z14	X15	Y15	Z15	X16	Y16	Z16	X17	Y17	Z17	X18	Y18	Z18	X19	Y19	Z19	X20	Y20	Z20	X21	Y21	Z21	X22	Y22	Z22	X23	Y23	Z23	X24	Y24	Z24	X25	Y25	Z25	X26	Y26	Z26	X27	Y27	Z27	X28	Y28	Z28	X29	Y29	Z29	X30	Y30	Z30	X31	Y31	Z31	X32	Y32	Z32	X33	Y33	Z33	X34	Y34	Z34	X35	Y35	Z35	X36	Y36	Z36	X37	Y37	Z37	X38	Y38	Z38	X39	Y39	Z39	X40	Y40	Z40	X41	Y41	Z41	X42	Y42	Z42	X43	Y43	Z43	X44	Y44	Z44	X45	Y45	Z45	X46	Y46	Z46	X47	Y47	Z47	X48	Y48	Z48	X49	Y49	Z49	X50	Y50	Z50	X51	Y51	Z51	X52	Y52	Z52	X53	Y53	Z53	

413	4.12	-1358.865966796875	964.0543823242188	-26.16988372802734	-1370.754272460938	950.9102172851562	-158.18408203125	-1347.285522460938	1041.545166015625	-83.83621978759766	-1080.564819335938	1167.709350585938	-91.58956909179688	-1339.239135742188	1145.926635742188	-84.84781646728516	-1266.393310546875	1386.963745117188	-92.17549896240234	-1121.3154296875	1292.275146484375	-91.83572387695312	-1287.605102539062	1351.958251953125	-196.0332946777344	-1200.544921875	1357.890380859375	-250.4270324707031	-1241.450317382812	1244.508666992188	-318.2572326660156	-1249.371459960938	1048.717529296875	-343.6980590820312	-1302.673583984375	1032.875122070312	-278.5493774414062	-1191.829956054688	819.5026245117188	-311.5592956542969	-1252.119018554688	816.8491821289062	-365.6796569824219	-1250.816528320312	942.3607788085938	-352.6255493164062	-1223.302612304688	644.875732421875	-304.3074645996094	-1251.620849609375	729.4524536132812	-357.7406921386719	-1194.015502929688	720.8002319335938	-332.8326416015625	-1205.51318359375	1359.81298828125	64.611328125	-1222.754272460938	1297.7529296875	125.7814331054688	-1232.09423828125	1038.597534179688	182.3058471679688	-1261.77197265625	1023.801147460938	90.86009979248047	-1091.3798828125	831.682861328125	152.1075439453125	-1133.7822265625	817.1787719726562	214.1214294433594	-1203.141479492188	973.5991821289062	198.1710357666016	-1081.020385742188	660.6981811523438	146.8357849121094	-1066.160278320312	727.83349609375	170.8332214355469	-1122.576293945312	728.2603759765625	212.9808807373047	-1195.92529296875	1561.4794921875	1.629504203796387	-1094.224609375	1571.087158203125	-169.9836883544922	-1072.963256835938	1574.333862304688	-49.32394027709961	-1241.847290039062	1555.897583007812	-153.7329864501953	-1280.402099609375	946.0728149414062	-269.7534790039062	-1277.069213867188	932.2772827148438	87.67042541503906	-1143.67626953125	927.4215698242188	33.28603363037109	-1168.0771484375	938.9431762695312	-229.2781829833984	-1010.656372070312	520.220947265625	-258.1732788085938	-1095.337524414062	638.0659790039062	-268.6658935546875	-1092.2880859375	67.10153961181641	-263.2166748046875	-1045.176147460938	283.1358642578125	-274.6099548339844	-890.2846069335938	65.1719970703125	-184.2309875488281	-967.5291748046875	61.71306610107422	-159.5514373779297	-965.4009399414062	56.19230651855469	-265.984619140625	-1133.359375	66.47464752197266	-209.1583709716797	-1300.717529296875	441.7835388183594	32.44454574584961	-1225.942016601562	695.3611450195312	71.51152038574219	-1476.042724609375	56.89479827880859	-8.165909767150879	-1327.001586914062	315.5404357910156	11.11728572845459	-1301.684936523438	43.15110778808594	-75.84557342529297	-1375.941528320312	43.96853637695312	-104.2749557495117	-1390.797241210938	50.90673065185547	-5.536654949188232	-1553.9423828125	46.55151748657227	-59.21842575073242	-1324.123657226562	1247.708129882812	-21.47989082336426	
414	4.13	-1365.170654296875	966.2078857421875	-26.43719673156738	-1376.996948242188	953.3681640625	-158.5513153076172	-1353.320556640625	1043.434936523438	-83.91367340087891	-1087.25732421875	1169.774291992188	-91.28915405273438	-1346.886108398438	1148.132080078125	-85.31919097900391	-1273.249389648438	1388.90576171875	-91.71495819091797	-1128.064086914062	1294.330688476562	-91.51262664794922	-1294.53173828125	1353.922119140625	-195.553466796875	-1207.505737304688	1359.976684570312	-249.9985961914062	-1248.385375976562	1246.57177734375	-317.8597412109375	-1256.0888671875	1050.859741210938	-342.9212646484375	-1309.010498046875	1034.817504882812	-278.0023803710938	-1196.448486328125	822.0556030273438	-311.326416015625	-1257.090942382812	818.635986328125	-365.0108947753906	-1256.692504882812	944.32080078125	-352.0931091308594	-1226.008911132812	647.0206298828125	-303.3762817382812	-1255.62841796875	731.194091796875	-356.7017211914062	-1198.066284179688	723.1573486328125	-332.4034118652344	-1212.178833007812	1361.690673828125	65.02134704589844	-1229.338256835938	1299.57275390625	126.1377487182617	-1238.941528320312	1040.36865234375	182.2278594970703	-1268.961181640625	1025.856689453125	90.90578460693359	-1100.286376953125	832.0293579101562	151.7054595947266	-1142.685791015625	818.0478515625	213.947509765625	-1210.49755859375	975.1959838867188	197.9995269775391	-1091.804931640625	661.0347290039062	145.9837799072266	-1076.345092773438	727.7942504882812	170.1507415771484	-1132.645141601562	728.9312133789062	212.5728149414062	-1202.629760742188	1563.3896484375	2.171396255493164	-1101.568359375	1573.321899414062	-169.6007537841797	-1079.85400390625	1576.370971679688	-49.00178527832031	-1249.083374023438	1558.100341796875	-153.0406188964844	-1286.220092773438	948.314453125	-269.7908935546875	-1283.723510742188	934.315185546875	87.54218292236328	-1150.130615234375	929.38916015625	33.71262741088867	-1173.6240234375	941.1417846679688	-229.0563812255859	-1019.049438476562	520.2792358398438	-257.0906982421875	-1102.535034179688	639.1100463867188	-267.7130126953125	-1116.555297851562	69.66070556640625	-263.8597717285156	-1062.1806640625	284.5391845703125	-274.4309997558594	-915.0586547851562	66.80532073974609	-184.0254821777344	-992.3634033203125	63.26086807250977	-159.4454650878906	-989.7586059570312	58.05657577514648	-265.9704895019531	-1158.057739257812	69.02223205566406	-210.0969085693359	-1305.223999023438	443.3103942871094	32.92678070068359	-1231.78173828125	697.2929077148438	72.01252746582031	-1476.330932617188	56.65046691894531	-8.08576488494873	-1330.209594726562	316.9019165039062	11.3845386505127	-1301.9560546875	43.23577499389648	-76.02560424804688	-1376.112670898438	43.99985885620117	-104.2294235229492	-1391.016357421875	50.94279861450195	-5.504262924194336	-1554.281494140625	45.90888977050781	-59.06929779052734	-1330.950439453125	1249.668090820312	-21.00734329223633	
415	4.14	-1371.253662109375	968.2321166992188	-26.59614753723145	-1383.05859375	955.6569213867188	-158.7989501953125	-1359.286865234375	1045.26953125	-83.93170928955078	-1093.747192382812	1171.763793945312	-91.031982421875	-1354.315795898438	1150.226440429688	-85.68625640869141	-1279.917846679688	1390.7626953125	-91.34951019287109	-1134.603393554688	1296.302490234375	-91.22651672363281	-1301.208984375	1355.798095703125	-195.18017578125	-1214.20458984375	1361.98046875	-249.6406402587891	-1255.00830078125	1248.544555664062	-317.5344543457031	-1262.466674804688	1052.885009765625	-342.2605285644531	-1315.130981445312	1036.698852539062	-277.5871887207031	-1200.821533203125	824.519287109375	-311.2491149902344	-1261.833129882812	820.3724365234375	-364.4848937988281	-1262.285888671875	946.2221069335938	-351.6669311523438	-1228.500366210938	649.123046875	-302.6571044921875	-1259.420288085938	732.9026489257812	-355.8495483398438	-1201.845458984375	725.4537353515625	-332.2291564941406	-1218.708618164062	1363.493041992188	65.36316680908203	-1235.793823242188	1301.308471679688	126.4279708862305	-1245.526123046875	1042.05615234375	182.0691833496094	-1275.906860351562	1027.8095703125	90.90877532958984	-1108.98486328125	832.289794921875	151.2403106689453	-1151.335083007812	818.8819580078125	213.7445068359375	-1217.564697265625	976.7268676757812	197.751708984375	-1102.474731445312	661.33544921875	145.1562042236328	-1086.401733398438	727.675048828125	169.4318084716797	-1142.524536132812	729.5755004882812	212.1557769775391	-1209.206176757812	1565.222900390625	2.676122188568115	-1108.80419921875	1575.511962890625	-169.2754211425781	-1086.612548828125	1578.38623046875	-48.73064422607422	-1256.151245117188	1560.14599609375	-152.3934783935547	-1292.06640625	950.3865966796875	-269.8479614257812	-1290.035034179688	936.2113647460938	87.43994903564453	-1156.369750976562	931.2577514648438	33.95355987548828	-1179.184814453125	943.22314453125	-228.8633422851562	-1027.695556640625	519.9636840820312	-256.035400390625	-1109.85205078125	639.7911987304688	-266.7879028320312	-1140.803955078125	72.5333251953125	-264.4098510742188	-1079.254272460938	285.9082641601562	-274.1936950683594	-939.7242431640625	68.27543640136719	-184.0155792236328	-1017.084045410156	64.85649108886719	-159.4221649169922	-1014.142944335938	59.94337844848633	-266.0485229492188	-1182.70849609375	72.06055450439453	-210.9045562744141	-1309.467529296875	444.7742919921875	33.30741500854492	-1237.364013671875	699.1317138671875	72.41714477539062	-1476.642211914062	56.47830200195312	-8.03933048248291	-1333.219360351562	318.217529296875	11.5812463760376	-1302.215576171875	43.32705688476562	-76.24546813964844	-1376.23681640625	44.00827789306641	-104.2080078125	-1391.175903320312	51.0107307434082	-5.542678356170654	-1554.575927734375	45.41086578369141	-58.9503288269043	-1337.612915039062	1251.527954101562	-20.60798454284668	
416	4.15	-1377.129150390625	970.0960083007812	-26.63752937316895	-1388.95654296875	957.7510986328125	-158.9141998291016	-1365.2080078125	1047.0263671875	-83.88897705078125	-1100.045776367188	1173.668579101562	-90.82291412353516	-1361.438110351562	1152.166625976562	-85.90129852294922	-1286.407470703125	1392.524291992188	-91.0802001953125	-1140.93701171875	1298.18701171875	-90.97926330566406	-1307.645385742188	1357.57568359375	-194.9147338867188	-1220.652221679688	1363.890380859375	-249.3548583984375	-1261.3046875	1250.419799804688	-317.2884521484375	-1268.470092773438	1054.782104492188	-341.7430419921875	-1321.029418945312	1038.50634765625	-277.3257141113281	-1204.970581054688	826.8722534179688	-311.2970581054688	-1266.31494140625	822.0585327148438	-364.1186828613281	-1267.563354492188	948.0554809570312	-351.3552551269531	-1230.858154296875	651.1697387695312	-302.1553344726562	-1262.991943359375	734.5761108398438	-355.2150573730469	-1205.313110351562	727.6954956054688	-332.2353210449219	-1225.114868164062	1365.213134765625	65.6334228515625	-1242.132202148438	1302.960083007812	126.6532592773438	-1251.884765625	1043.656982421875	181.8114166259766	-1282.611938476562	1029.654296875	90.84549713134766	-1117.484252929688	832.4747314453125	150.7161407470703	-1159.72802734375	819.6892700195312	213.5126342773438	-1224.3623046875	978.1886596679688	197.4181365966797	-1113.119506835938	661.5772094726562	144.3871459960938	-1096.313110351562	727.496337890625	168.6871032714844	-1152.19091796875	730.20556640625	211.7422027587891	-1215.657592773438	1566.966552734375	3.148349046707153	-1115.91943359375	1577.63330078125	-169.0076751708984	-1093.239868164062	1580.35302734375	-48.51252746582031	-1263.057739257812	1562.036010742188	-151.7881164550781	-1297.936157226562	952.2855834960938	-269.90576171875	-1295.994506835938	937.935791015625	87.37374114990234	-1162.391357421875	933.0112915039062	34.01279830932617	-1184.8076171875	945.158935546875	-228.6955261230469	-1036.573364257812	519.3137817382812	-254.9924468994141	-1117.283325195312	640.130859375	-265.8988342285156	-1164.98486328125	75.71111297607422	-264.8563537597656	-1096.350952148438	287.2559204101562	-273.8972473144531	-964.2021484375	69.5283203125	-184.2466888427734	-1041.597900390625	66.45413208007812	-159.5169525146484	-1038.51220703125	61.8265266418457	-266.248779296875	-1207.229858398438	75.57072448730469	-211.5472106933594	-1313.439086914062	446.1524658203125	33.55960464477539	-1242.701293945312	700.8451538085938	72.71363830566406	-1476.972045898438	56.36489868164062	-8.039874076843262	-1336.017211914062	319.4632263183594	11.68391132354736	-1302.462280273438	43.42105484008789	-76.50086212158203	-1376.341186523438	43.98446655273438	-104.2337112426758	-1391.300659179688	51.10756683349609	-5.663913726806641	-1554.825439453125	45.01091003417969	-58.86785125732422	-1344.099731445312	1253.268676757812	-20.29202842712402	
